<?xml version="1.0" encoding="UTF-8" standalone="no"?><!DOCTYPE svg PUBLIC "-//W3C//DTD SVG 1.1//EN" "http://www.w3.org/Graphics/SVG/1.1/DTD/svg11.dtd"><svg width="100%" height="100%" viewBox="0 0 296 343" version="1.1" xmlns="http://www.w3.org/2000/svg" xmlns:xlink="http://www.w3.org/1999/xlink" xml:space="preserve" style="fill-rule:evenodd;clip-rule:evenodd;stroke-linejoin:round;stroke-miterlimit:1.41421;"><g><g><g><g><rect x="109.586" y="43.643" width="76.01" height="270.137" style="fill:#376d78;"/><text x="136.148px" y="188.204px" style="font-family:'Verdana', sans-serif;font-size:34.532px;fill:#fff;">8</text><text x="116.661px" y="311.665px" style="font-family:'Verdana', sans-serif;font-size:10.072px;fill:#fff;">2<tspan x="123.336px 130.011px 136.686px 143.362px 147.053px 151.821px 158.496px 165.172px 171.847px " y="311.665px 311.665px 311.665px 311.665px 311.665px 311.665px 311.665px 311.665px 311.665px ">016 -2017</tspan></text></g></g><g><rect x="0" y="151.916" width="76.01" height="161.863" style="fill:#376d78;"/><text x="26.562px" y="242.745px" style="font-family:'Verdana', sans-serif;font-size:36px;fill:#fff;">6</text><text x="7.074px" y="311.575px" style="font-family:'Verdana', sans-serif;font-size:10.5px;fill:#fff;">2015 -2016</text></g><g><rect x="219.173" y="96.139" width="76.01" height="216" style="fill:#376d78;"/><text x="245.734px" y="214.036px" style="font-family:'Verdana', sans-serif;font-size:36px;fill:#fff;">7</text><text x="226.247px" y="309.935px" style="font-family:'Verdana', sans-serif;font-size:10.5px;fill:#fff;">2017 -2018</text></g></g><g transform="matrix(0.319604,0,0,0.319604,-49.3861,-16.5341)"><text x="185.559px" y="94.798px" style="font-family:'Verdana', sans-serif;font-size:56.32px;fill:#376d78;">T<tspan x="214.214px 248.397px " y="94.798px 94.798px ">ot</tspan>al Number of Organizations</text><text x="293.386px" y="151.117px" style="font-family:'Verdana', sans-serif;font-size:56.32px;fill:#376d78;">under the Media Board</text></g><g transform="matrix(0.75,0,0,0.75,102.97,319.18)"><text x="4.579px" y="9.117px" style="font-family:'Verdana', sans-serif;font-size:12px;fill:#376d78;">*this number indicates the growth of the</text><text x="1.201px" y="21.117px" style="font-family:'Verdana', sans-serif;font-size:12px;fill:#376d78;">organization&apos;s popularity each school y<tspan x="235.606px 242.754px " y="21.117px 21.117px ">ea</tspan>r</text></g></g></svg>