<?xml version="1.0" encoding="UTF-8" standalone="no"?><!DOCTYPE svg PUBLIC "-//W3C//DTD SVG 1.1//EN" "http://www.w3.org/Graphics/SVG/1.1/DTD/svg11.dtd"><svg width="100%" height="100%" viewBox="0 0 145 43" version="1.1" xmlns="http://www.w3.org/2000/svg" xmlns:xlink="http://www.w3.org/1999/xlink" xml:space="preserve" style="fill-rule:evenodd;clip-rule:evenodd;stroke-linejoin:round;stroke-miterlimit:1.41421;"><g><clipPath id="_clip1"><rect x="0" y="0" width="144.11" height="45.254"/></clipPath><g clip-path="url(#_clip1)"><path d="M15.106,28.131l0,-10.878l-7.322,0l0,10.878l-7.766,0l0,-28.081l7.766,0l0,9.516l7.322,0l0,-9.516l7.766,0l0,28.081l-7.766,0Z" style="fill:#492f92;fill-rule:nonzero;"/><path d="M83.053,28.131l0,-20.707l-6.963,0l0,-7.374l21.692,0l0,7.374l-6.964,0l0,20.707l-7.765,0Z" style="fill:#492f92;fill-rule:nonzero;"/><path d="M99.776,28.131l0,-28.081l19.294,0l0,6.547l-11.529,0l0,4.039l9.756,0l0,6.52l-9.756,0l0,4.427l11.989,0l0,6.548l-19.754,0Z" style="fill:#492f92;fill-rule:nonzero;"/><path d="M131.485,18.323c3.631,0 4.16,1.206 4.16,4.863c0,2.49 0.197,4.31 0.393,4.941l7.834,0l0,-0.895c-0.919,0 -0.82,-1.246 -0.82,-4.901c0,-5.638 -1.507,-6.335 -3.999,-7.422c2.754,-0.892 3.965,-3.616 3.965,-6.864c0,-5.445 -2.588,-7.967 -10.476,-7.967l-11.2,0l0,28.049l7.766,0l0,-9.804l2.377,0Zm-2.377,-11.726l3.631,0c1.816,0 3.135,0.939 3.135,2.935c0,1.956 -1.285,2.661 -3.696,2.661l-3.07,0l0,-5.596Z" style="fill:#492f92;fill-rule:nonzero;"/><path d="M40.351,0.044l0,16.952c-0.042,2.908 -0.896,4.903 -3.638,4.903c-3.212,0 -3.676,-2.372 -3.676,-5.134l0,-16.719l0,-0.046l-7.816,0l0,15.793c-0.059,2.377 0.202,4.311 0.68,5.887c2.091,7.168 8.317,6.916 8.972,6.916c0.522,0 1.029,-0.061 1.523,-0.173c0.228,-0.02 0.372,-0.039 0.409,-0.041c0.295,-0.01 1.573,-0.279 3.546,-1.929l0,1.67l7.738,0l0,-28.079l-7.738,0Z" style="fill:#492f92;fill-rule:nonzero;"/><path d="M66.515,0.049l0,15.311l0.295,0l-8.417,-15.198l0,-0.113l-7.407,0l0,28.078l7.407,0l0,-15.218l8.285,15.218l7.243,0l0,-28.078l-7.406,0Z" style="fill:#492f92;fill-rule:nonzero;"/><path d="M0.057,32.33l6.084,0l0.046,1.934l-0.253,0c-0.126,-0.607 -0.287,-1.002 -0.482,-1.185c-0.196,-0.183 -0.606,-0.275 -1.231,-0.275l-0.587,0l0,5.814c0,0.439 0.065,0.71 0.195,0.815c0.129,0.105 0.413,0.174 0.852,0.207l0,0.207l-3.14,0l0,-0.207c0.457,-0.036 0.742,-0.115 0.855,-0.237c0.112,-0.122 0.169,-0.428 0.169,-0.918l0,-5.681l-0.598,0c-0.596,0 -1.001,0.091 -1.217,0.272c-0.215,0.182 -0.377,0.577 -0.486,1.188l-0.264,0l0.057,-1.934Z" style="fill:#492f92;fill-rule:nonzero;"/><path d="M6.506,39.689c0.288,-0.041 0.477,-0.115 0.567,-0.225c0.089,-0.108 0.134,-0.366 0.134,-0.772l0,-5.316c0,-0.21 -0.025,-0.364 -0.075,-0.463c-0.05,-0.1 -0.173,-0.149 -0.368,-0.149c-0.038,0 -0.076,0.003 -0.112,0.009c-0.037,0.005 -0.078,0.012 -0.123,0.019l0,-0.195c0.155,-0.049 0.346,-0.108 0.573,-0.178c0.227,-0.07 0.385,-0.12 0.473,-0.15l0.508,-0.171l0.01,0.04l0,3.427c0.219,-0.267 0.414,-0.464 0.585,-0.59c0.306,-0.223 0.637,-0.334 0.992,-0.334c0.564,0 0.949,0.25 1.154,0.751c0.111,0.266 0.167,0.614 0.167,1.045l0,2.255c0,0.391 0.043,0.646 0.129,0.764c0.085,0.118 0.261,0.196 0.527,0.233l0,0.158l-2.278,0l0,-0.158c0.307,-0.045 0.505,-0.12 0.593,-0.227c0.088,-0.107 0.132,-0.364 0.132,-0.77l0,-2.234c0,-0.357 -0.057,-0.645 -0.171,-0.866c-0.113,-0.22 -0.328,-0.331 -0.643,-0.331c-0.273,0 -0.537,0.103 -0.792,0.31c-0.256,0.206 -0.383,0.341 -0.383,0.403l0,2.718c0,0.413 0.045,0.672 0.137,0.775c0.092,0.104 0.287,0.177 0.587,0.222l0,0.158l-2.323,0l0,-0.158Z" style="fill:#492f92;fill-rule:nonzero;"/><path d="M13.039,35.602c-0.113,0.2 -0.193,0.451 -0.242,0.754l2.221,0c-0.039,-0.37 -0.105,-0.645 -0.2,-0.826c-0.172,-0.325 -0.46,-0.488 -0.863,-0.488c-0.401,0 -0.706,0.187 -0.916,0.56m2.513,-0.422c0.372,0.36 0.559,0.869 0.559,1.529l-3.335,0c0.034,0.86 0.218,1.486 0.551,1.88c0.332,0.393 0.725,0.589 1.18,0.589c0.367,0 0.677,-0.102 0.929,-0.306c0.252,-0.204 0.484,-0.493 0.698,-0.867l0.184,0.067c-0.144,0.471 -0.413,0.907 -0.808,1.308c-0.394,0.401 -0.878,0.601 -1.449,0.601c-0.66,0 -1.169,-0.262 -1.529,-0.788c-0.359,-0.525 -0.538,-1.131 -0.538,-1.815c0,-0.744 0.208,-1.387 0.626,-1.927c0.418,-0.54 0.962,-0.81 1.632,-0.81c0.495,0 0.929,0.18 1.3,0.539" style="fill:#492f92;fill-rule:nonzero;"/><path d="M24.404,32.379c0.409,0.122 0.638,0.183 0.687,0.183c0.101,0 0.197,-0.029 0.287,-0.089c0.091,-0.058 0.154,-0.151 0.189,-0.277l0.23,0l0.104,2.554l-0.248,0c-0.143,-0.507 -0.33,-0.916 -0.56,-1.227c-0.44,-0.585 -1.033,-0.877 -1.776,-0.877c-0.751,0 -1.365,0.315 -1.842,0.945c-0.477,0.629 -0.715,1.497 -0.715,2.6c0,1.015 0.251,1.826 0.752,2.431c0.501,0.606 1.136,0.909 1.905,0.909c0.555,0 1.067,-0.141 1.535,-0.423c0.269,-0.158 0.564,-0.399 0.886,-0.722l0.201,0.211c-0.238,0.318 -0.534,0.596 -0.887,0.836c-0.602,0.406 -1.254,0.609 -1.957,0.609c-1.155,0 -2.071,-0.391 -2.749,-1.172c-0.627,-0.722 -0.94,-1.623 -0.94,-2.704c0,-1.106 0.33,-2.036 0.991,-2.788c0.694,-0.788 1.599,-1.182 2.713,-1.182c0.387,0 0.786,0.061 1.194,0.183" style="fill:#492f92;fill-rule:nonzero;"/><path d="M27.452,32.27c0.105,-0.114 0.234,-0.171 0.389,-0.171c0.15,0 0.279,0.056 0.386,0.168c0.106,0.113 0.16,0.25 0.16,0.412c0,0.159 -0.054,0.294 -0.16,0.407c-0.107,0.112 -0.236,0.168 -0.386,0.168c-0.155,0 -0.284,-0.056 -0.389,-0.168c-0.105,-0.113 -0.158,-0.248 -0.158,-0.407c0,-0.158 0.053,-0.295 0.158,-0.409m-0.825,7.419c0.373,-0.037 0.608,-0.105 0.705,-0.202c0.098,-0.098 0.146,-0.363 0.146,-0.796l0,-2.627c0,-0.242 -0.015,-0.41 -0.047,-0.504c-0.052,-0.152 -0.162,-0.229 -0.329,-0.229c-0.039,0 -0.076,0.004 -0.112,0.012c-0.037,0.007 -0.142,0.037 -0.317,0.088l0,-0.17l0.225,-0.077c0.611,-0.211 1.038,-0.369 1.279,-0.477c0.097,-0.044 0.16,-0.066 0.188,-0.066c0.007,0.026 0.01,0.054 0.01,0.083l0,3.973c0,0.418 0.048,0.681 0.144,0.788c0.096,0.106 0.312,0.175 0.65,0.204l0,0.158l-2.542,0l0,-0.158Z" style="fill:#492f92;fill-rule:nonzero;"/><path d="M32.12,34.738l0,0.401l-1.07,0l-0.01,3.172c0,0.279 0.022,0.49 0.069,0.633c0.084,0.253 0.25,0.38 0.498,0.38c0.127,0 0.238,-0.031 0.331,-0.093c0.094,-0.063 0.201,-0.161 0.321,-0.296l0.137,0.121l-0.116,0.169c-0.182,0.263 -0.374,0.448 -0.578,0.556c-0.203,0.109 -0.399,0.163 -0.588,0.163c-0.413,0 -0.693,-0.193 -0.84,-0.58c-0.08,-0.211 -0.121,-0.501 -0.121,-0.873l0,-3.352l-0.569,0c-0.017,-0.01 -0.03,-0.022 -0.039,-0.033c-0.009,-0.011 -0.013,-0.026 -0.013,-0.044c0,-0.038 0.008,-0.067 0.024,-0.087c0.015,-0.02 0.065,-0.068 0.148,-0.142c0.239,-0.211 0.412,-0.382 0.517,-0.513c0.106,-0.132 0.354,-0.479 0.745,-1.042c0.046,0 0.074,0.004 0.082,0.011c0.009,0.008 0.014,0.036 0.014,0.084l0,1.365l1.058,0Z" style="fill:#492f92;fill-rule:nonzero;"/><path d="M32.529,34.738l2.214,0l0,0.158c-0.175,0.004 -0.305,0.021 -0.389,0.052c-0.161,0.048 -0.241,0.145 -0.241,0.288c0,0.054 0.009,0.108 0.026,0.162c0.018,0.055 0.049,0.137 0.095,0.247l1.213,2.775l0.999,-2.797c0.01,-0.03 0.027,-0.098 0.05,-0.204c0.023,-0.106 0.034,-0.178 0.034,-0.216c0,-0.099 -0.032,-0.17 -0.095,-0.216c-0.063,-0.045 -0.143,-0.072 -0.241,-0.079l-0.162,-0.012l0,-0.158l1.442,0l0,0.158c-0.143,0.02 -0.251,0.073 -0.322,0.161c-0.072,0.088 -0.134,0.21 -0.187,0.366l-1.652,4.626c-0.286,0.8 -0.56,1.38 -0.822,1.74c-0.261,0.36 -0.593,0.54 -0.995,0.54c-0.195,0 -0.378,-0.053 -0.549,-0.156c-0.172,-0.104 -0.257,-0.269 -0.257,-0.495c0,-0.148 0.051,-0.269 0.152,-0.363c0.102,-0.095 0.231,-0.142 0.386,-0.142c0.09,0 0.223,0.034 0.401,0.103c0.177,0.069 0.304,0.104 0.38,0.104c0.193,0 0.396,-0.251 0.61,-0.753c0.214,-0.502 0.321,-0.832 0.321,-0.992c0,-0.032 -0.005,-0.072 -0.015,-0.119c-0.009,-0.047 -0.021,-0.089 -0.033,-0.126l-1.655,-3.784c-0.119,-0.273 -0.223,-0.453 -0.312,-0.54c-0.089,-0.087 -0.221,-0.144 -0.396,-0.17l0,-0.158Z" style="fill:#492f92;fill-rule:nonzero;"/><path d="M43.635,32.33l0,0.206c-0.414,0.03 -0.682,0.104 -0.805,0.22c-0.123,0.117 -0.184,0.384 -0.184,0.802l0,3.634c0,0.596 0.077,1.06 0.232,1.393c0.287,0.606 0.831,0.909 1.633,0.909c0.879,0 1.469,-0.31 1.77,-0.932c0.168,-0.348 0.252,-0.884 0.252,-1.609l0,-2.957c0,-0.618 -0.07,-1.005 -0.21,-1.163c-0.141,-0.157 -0.408,-0.256 -0.802,-0.297l0,-0.206l2.496,0l0,0.206c-0.418,0.049 -0.691,0.155 -0.82,0.32c-0.128,0.164 -0.192,0.545 -0.192,1.14l0,2.958c0,0.784 -0.114,1.396 -0.341,1.836c-0.421,0.81 -1.219,1.215 -2.395,1.215c-1.163,0 -1.954,-0.399 -2.374,-1.198c-0.228,-0.429 -0.341,-0.995 -0.341,-1.698l0,-3.551c0,-0.414 -0.06,-0.68 -0.181,-0.797c-0.12,-0.116 -0.382,-0.191 -0.785,-0.225l0,-0.206l3.047,0Z" style="fill:#492f92;fill-rule:nonzero;"/><path d="M48.394,39.689c0.246,-0.033 0.419,-0.097 0.518,-0.194c0.099,-0.096 0.149,-0.311 0.149,-0.645l0,-2.822c0,-0.235 -0.021,-0.399 -0.063,-0.495c-0.067,-0.139 -0.202,-0.209 -0.408,-0.209c-0.031,0 -0.064,0.002 -0.097,0.006c-0.033,0.003 -0.074,0.009 -0.122,0.016l0,-0.194c0.142,-0.044 0.479,-0.158 1.01,-0.341l0.49,-0.17c0.024,0 0.039,0.009 0.044,0.027c0.005,0.018 0.008,0.043 0.008,0.076l0,0.806c0.323,-0.317 0.575,-0.533 0.757,-0.651c0.274,-0.18 0.558,-0.27 0.852,-0.27c0.239,0 0.456,0.072 0.652,0.216c0.379,0.281 0.568,0.782 0.568,1.502l0,2.588c0,0.264 0.051,0.455 0.151,0.572c0.1,0.118 0.269,0.179 0.505,0.182l0,0.158l-2.243,0l0,-0.158c0.256,-0.037 0.436,-0.112 0.538,-0.225c0.101,-0.113 0.152,-0.358 0.152,-0.736l0,-2.365c0,-0.317 -0.056,-0.58 -0.168,-0.789c-0.111,-0.208 -0.317,-0.313 -0.617,-0.313c-0.206,0 -0.416,0.074 -0.629,0.222c-0.118,0.085 -0.272,0.226 -0.46,0.422l0,3.103c0,0.265 0.056,0.444 0.169,0.534c0.112,0.091 0.29,0.14 0.532,0.147l0,0.158l-2.288,0l0,-0.158Z" style="fill:#492f92;fill-rule:nonzero;"/><path d="M54.614,32.27c0.105,-0.114 0.234,-0.171 0.389,-0.171c0.15,0 0.279,0.056 0.385,0.168c0.107,0.113 0.161,0.25 0.161,0.412c0,0.159 -0.054,0.294 -0.161,0.407c-0.106,0.112 -0.235,0.168 -0.385,0.168c-0.155,0 -0.284,-0.056 -0.389,-0.168c-0.105,-0.113 -0.158,-0.248 -0.158,-0.407c0,-0.158 0.053,-0.295 0.158,-0.409m-0.825,7.419c0.372,-0.037 0.607,-0.105 0.705,-0.202c0.097,-0.098 0.146,-0.363 0.146,-0.796l0,-2.627c0,-0.242 -0.016,-0.41 -0.047,-0.504c-0.052,-0.152 -0.162,-0.229 -0.329,-0.229c-0.039,0 -0.076,0.004 -0.113,0.012c-0.036,0.007 -0.142,0.037 -0.316,0.088l0,-0.17l0.225,-0.077c0.611,-0.211 1.037,-0.369 1.278,-0.477c0.098,-0.044 0.161,-0.066 0.189,-0.066c0.007,0.026 0.01,0.054 0.01,0.083l0,3.973c0,0.418 0.048,0.681 0.144,0.788c0.095,0.106 0.312,0.175 0.65,0.204l0,0.158l-2.542,0l0,-0.158Z" style="fill:#492f92;fill-rule:nonzero;"/><path d="M58.866,34.69l0,0.17c-0.182,0.022 -0.31,0.052 -0.385,0.088c-0.076,0.038 -0.113,0.119 -0.113,0.244c0,0.06 0.007,0.116 0.023,0.17c0.016,0.053 0.043,0.132 0.082,0.235l1.102,2.791l0.931,-2.463c0.046,-0.123 0.088,-0.25 0.128,-0.383c0.04,-0.133 0.061,-0.235 0.061,-0.305c0,-0.144 -0.065,-0.247 -0.194,-0.311c-0.077,-0.033 -0.182,-0.055 -0.315,-0.066l0,-0.17l1.488,0l0,0.17c-0.171,0.015 -0.294,0.075 -0.369,0.18c-0.075,0.105 -0.184,0.349 -0.327,0.729l-1.513,3.992c-0.027,0.07 -0.05,0.119 -0.068,0.144c-0.017,0.026 -0.042,0.039 -0.074,0.039c-0.035,0 -0.065,-0.021 -0.089,-0.063c-0.025,-0.043 -0.051,-0.096 -0.079,-0.159l-1.606,-4.058c-0.129,-0.329 -0.268,-0.553 -0.415,-0.671c-0.087,-0.067 -0.214,-0.111 -0.383,-0.133l0,-0.17l2.115,0Z" style="fill:#492f92;fill-rule:nonzero;"/><path d="M63.181,35.602c-0.113,0.2 -0.193,0.451 -0.243,0.754l2.222,0c-0.038,-0.37 -0.105,-0.645 -0.2,-0.826c-0.172,-0.325 -0.46,-0.488 -0.863,-0.488c-0.4,0 -0.706,0.187 -0.916,0.56m2.514,-0.422c0.372,0.36 0.558,0.869 0.558,1.529l-3.336,0c0.035,0.86 0.219,1.486 0.551,1.88c0.333,0.393 0.726,0.589 1.181,0.589c0.368,0 0.677,-0.102 0.929,-0.306c0.252,-0.204 0.485,-0.493 0.698,-0.867l0.184,0.067c-0.144,0.471 -0.413,0.907 -0.808,1.308c-0.394,0.401 -0.878,0.601 -1.449,0.601c-0.66,0 -1.169,-0.262 -1.528,-0.788c-0.36,-0.525 -0.54,-1.131 -0.54,-1.815c0,-0.744 0.209,-1.387 0.627,-1.927c0.418,-0.54 0.962,-0.81 1.632,-0.81c0.495,0 0.929,0.18 1.301,0.539" style="fill:#492f92;fill-rule:nonzero;"/><path d="M66.744,39.665c0.32,-0.03 0.532,-0.091 0.636,-0.182c0.105,-0.092 0.157,-0.286 0.157,-0.585l0,-2.505c0,-0.367 -0.032,-0.63 -0.097,-0.787c-0.064,-0.158 -0.183,-0.236 -0.354,-0.236c-0.035,0 -0.081,0.004 -0.138,0.013c-0.059,0.009 -0.119,0.021 -0.181,0.037l0,-0.183c0.199,-0.074 0.404,-0.15 0.614,-0.228c0.211,-0.077 0.356,-0.133 0.437,-0.166c0.174,-0.07 0.355,-0.15 0.541,-0.239c0.024,0 0.039,0.01 0.045,0.03c0.004,0.019 0.007,0.06 0.007,0.122l0,0.909c0.224,-0.329 0.439,-0.586 0.648,-0.771c0.208,-0.185 0.423,-0.277 0.647,-0.277c0.178,0 0.323,0.056 0.435,0.169c0.112,0.113 0.168,0.254 0.168,0.424c0,0.152 -0.043,0.279 -0.128,0.382c-0.086,0.104 -0.193,0.156 -0.322,0.156c-0.132,0 -0.266,-0.065 -0.4,-0.195c-0.135,-0.129 -0.241,-0.193 -0.318,-0.193c-0.123,0 -0.273,0.104 -0.451,0.313c-0.178,0.209 -0.267,0.425 -0.267,0.647l0,2.505c0,0.319 0.07,0.54 0.21,0.665c0.14,0.124 0.373,0.182 0.698,0.175l0,0.182l-2.587,0l0,-0.182Z" style="fill:#492f92;fill-rule:nonzero;"/><path d="M70.828,38.095l0.172,0c0.082,0.422 0.191,0.746 0.328,0.972c0.246,0.415 0.607,0.622 1.082,0.622c0.264,0 0.473,-0.077 0.626,-0.23c0.153,-0.154 0.23,-0.353 0.23,-0.597c0,-0.156 -0.044,-0.305 -0.133,-0.45c-0.088,-0.144 -0.244,-0.285 -0.466,-0.422l-0.594,-0.355c-0.435,-0.244 -0.754,-0.49 -0.955,-0.737c-0.201,-0.248 -0.302,-0.539 -0.302,-0.875c0,-0.414 0.141,-0.754 0.424,-1.02c0.281,-0.266 0.636,-0.399 1.062,-0.399c0.187,0 0.392,0.038 0.616,0.113c0.224,0.075 0.35,0.112 0.378,0.112c0.063,0 0.109,-0.009 0.138,-0.027c0.028,-0.019 0.053,-0.048 0.074,-0.088l0.126,0l0.034,1.545l-0.16,0c-0.072,-0.36 -0.167,-0.641 -0.288,-0.842c-0.219,-0.371 -0.536,-0.557 -0.951,-0.557c-0.248,0 -0.443,0.079 -0.584,0.239c-0.142,0.159 -0.213,0.346 -0.213,0.56c0,0.341 0.243,0.644 0.729,0.91l0.698,0.394c0.751,0.429 1.126,0.929 1.126,1.497c0,0.436 -0.155,0.792 -0.464,1.069c-0.31,0.277 -0.714,0.415 -1.215,0.415c-0.209,0 -0.447,-0.037 -0.713,-0.112c-0.266,-0.075 -0.423,-0.113 -0.472,-0.113c-0.042,0 -0.079,0.016 -0.11,0.049c-0.032,0.032 -0.056,0.07 -0.074,0.115l-0.149,0l0,-1.788Z" style="fill:#492f92;fill-rule:nonzero;"/><path d="M75.501,32.27c0.105,-0.114 0.234,-0.171 0.388,-0.171c0.151,0 0.28,0.056 0.386,0.168c0.107,0.113 0.16,0.25 0.16,0.412c0,0.159 -0.053,0.294 -0.16,0.407c-0.106,0.112 -0.235,0.168 -0.386,0.168c-0.154,0 -0.283,-0.056 -0.388,-0.168c-0.105,-0.113 -0.158,-0.248 -0.158,-0.407c0,-0.158 0.053,-0.295 0.158,-0.409m-0.825,7.419c0.372,-0.037 0.608,-0.105 0.705,-0.202c0.097,-0.098 0.146,-0.363 0.146,-0.796l0,-2.627c0,-0.242 -0.016,-0.41 -0.047,-0.504c-0.052,-0.152 -0.162,-0.229 -0.329,-0.229c-0.039,0 -0.076,0.004 -0.113,0.012c-0.036,0.007 -0.142,0.037 -0.316,0.088l0,-0.17l0.225,-0.077c0.611,-0.211 1.037,-0.369 1.278,-0.477c0.098,-0.044 0.161,-0.066 0.189,-0.066c0.006,0.026 0.01,0.054 0.01,0.083l0,3.973c0,0.418 0.048,0.681 0.144,0.788c0.095,0.106 0.312,0.175 0.65,0.204l0,0.158l-2.542,0l0,-0.158Z" style="fill:#492f92;fill-rule:nonzero;"/><path d="M80.168,34.738l0,0.401l-1.069,0l-0.011,3.172c0,0.279 0.023,0.49 0.069,0.633c0.085,0.253 0.251,0.38 0.499,0.38c0.127,0 0.237,-0.031 0.331,-0.093c0.094,-0.063 0.201,-0.161 0.321,-0.296l0.136,0.121l-0.115,0.169c-0.182,0.263 -0.375,0.448 -0.578,0.556c-0.203,0.109 -0.399,0.163 -0.588,0.163c-0.413,0 -0.694,-0.193 -0.84,-0.58c-0.081,-0.211 -0.121,-0.501 -0.121,-0.873l0,-3.352l-0.569,0c-0.017,-0.01 -0.031,-0.022 -0.039,-0.033c-0.009,-0.011 -0.013,-0.026 -0.013,-0.044c0,-0.038 0.007,-0.067 0.023,-0.087c0.016,-0.02 0.065,-0.068 0.149,-0.142c0.239,-0.211 0.411,-0.382 0.517,-0.513c0.105,-0.132 0.354,-0.479 0.745,-1.042c0.046,0 0.073,0.004 0.082,0.011c0.009,0.008 0.013,0.036 0.013,0.084l0,1.365l1.058,0Z" style="fill:#492f92;fill-rule:nonzero;"/><path d="M80.578,34.738l2.213,0l0,0.158c-0.174,0.004 -0.304,0.021 -0.387,0.052c-0.162,0.048 -0.242,0.145 -0.242,0.288c0,0.054 0.009,0.108 0.026,0.162c0.018,0.055 0.049,0.137 0.095,0.247l1.213,2.775l0.999,-2.797c0.01,-0.03 0.027,-0.098 0.05,-0.204c0.022,-0.106 0.034,-0.178 0.034,-0.216c0,-0.099 -0.032,-0.17 -0.095,-0.216c-0.063,-0.045 -0.143,-0.072 -0.241,-0.079l-0.163,-0.012l0,-0.158l1.443,0l0,0.158c-0.143,0.02 -0.251,0.073 -0.323,0.161c-0.071,0.088 -0.133,0.21 -0.186,0.366l-1.652,4.626c-0.286,0.8 -0.56,1.38 -0.822,1.74c-0.262,0.36 -0.593,0.54 -0.995,0.54c-0.195,0 -0.379,-0.053 -0.55,-0.156c-0.171,-0.104 -0.256,-0.269 -0.256,-0.495c0,-0.148 0.051,-0.269 0.152,-0.363c0.102,-0.095 0.23,-0.142 0.386,-0.142c0.089,0 0.223,0.034 0.4,0.103c0.178,0.069 0.305,0.104 0.381,0.104c0.193,0 0.396,-0.251 0.61,-0.753c0.214,-0.502 0.321,-0.832 0.321,-0.992c0,-0.032 -0.005,-0.072 -0.015,-0.119c-0.009,-0.047 -0.021,-0.089 -0.033,-0.126l-1.655,-3.784c-0.119,-0.273 -0.223,-0.453 -0.312,-0.54c-0.089,-0.087 -0.222,-0.144 -0.396,-0.17l0,-0.158Z" style="fill:#492f92;fill-rule:nonzero;"/><path d="M90.265,35.258c-0.349,0.337 -0.525,0.918 -0.525,1.744c0,0.659 0.141,1.274 0.423,1.844c0.281,0.57 0.673,0.855 1.173,0.855c0.392,0 0.693,-0.191 0.905,-0.572c0.211,-0.381 0.317,-0.881 0.317,-1.499c0,-0.641 -0.135,-1.244 -0.404,-1.811c-0.27,-0.567 -0.659,-0.85 -1.17,-0.85c-0.276,0 -0.516,0.097 -0.719,0.289m-0.839,0.146c0.443,-0.509 1.012,-0.763 1.707,-0.763c0.693,0 1.266,0.24 1.721,0.721c0.454,0.481 0.682,1.121 0.682,1.92c0,0.736 -0.221,1.376 -0.661,1.92c-0.441,0.543 -1.011,0.815 -1.71,0.815c-0.671,0 -1.24,-0.261 -1.705,-0.782c-0.464,-0.521 -0.697,-1.177 -0.697,-1.964c0,-0.736 0.221,-1.358 0.663,-1.867" style="fill:#492f92;fill-rule:nonzero;"/><path d="M94.066,39.689c0.371,-0.018 0.616,-0.091 0.733,-0.218c0.117,-0.127 0.176,-0.395 0.176,-0.804l0,-3.552l-0.897,0l0,-0.377l0.897,0c0,-0.586 0.075,-1.083 0.226,-1.487c0.287,-0.777 0.815,-1.165 1.582,-1.165c0.309,0 0.585,0.065 0.829,0.195c0.243,0.13 0.365,0.305 0.365,0.524c0,0.123 -0.042,0.232 -0.126,0.329c-0.083,0.096 -0.184,0.145 -0.303,0.145c-0.1,0 -0.188,-0.033 -0.261,-0.099c-0.073,-0.066 -0.16,-0.182 -0.261,-0.348l-0.089,-0.147c-0.049,-0.079 -0.106,-0.146 -0.172,-0.2c-0.067,-0.055 -0.159,-0.082 -0.277,-0.082c-0.265,0 -0.444,0.14 -0.538,0.42c-0.052,0.149 -0.078,0.345 -0.078,0.588l0,1.327l1.302,0l0,0.377l-1.302,0l0,3.552c0,0.416 0.054,0.682 0.161,0.798c0.107,0.116 0.387,0.191 0.84,0.224l0,0.158l-2.807,0l0,-0.158Z" style="fill:#492f92;fill-rule:nonzero;"/><path d="M100.227,39.64c0.446,-0.048 0.732,-0.154 0.857,-0.319c0.127,-0.165 0.19,-0.546 0.19,-1.146l0,-5.011l-0.147,-0.184c-0.158,-0.196 -0.292,-0.317 -0.402,-0.363c-0.111,-0.046 -0.276,-0.073 -0.498,-0.081l0,-0.206l1.836,0l4.168,5.442l0,-3.783c0,-0.622 -0.088,-1.027 -0.261,-1.215c-0.116,-0.122 -0.369,-0.201 -0.763,-0.238l0,-0.206l2.519,0l0,0.206c-0.41,0.045 -0.683,0.151 -0.819,0.317c-0.137,0.167 -0.205,0.547 -0.205,1.143l0,5.985l-0.183,0l-4.774,-6.234l0,4.428c0,0.622 0.087,1.027 0.259,1.216c0.112,0.122 0.364,0.205 0.753,0.249l0,0.207l-2.53,0l0,-0.207Z" style="fill:#492f92;fill-rule:nonzero;"/><path d="M109.136,35.602c-0.112,0.2 -0.193,0.451 -0.243,0.754l2.222,0c-0.039,-0.37 -0.105,-0.645 -0.2,-0.826c-0.172,-0.325 -0.46,-0.488 -0.863,-0.488c-0.4,0 -0.706,0.187 -0.916,0.56m2.514,-0.422c0.372,0.36 0.558,0.869 0.558,1.529l-3.336,0c0.035,0.86 0.219,1.486 0.551,1.88c0.333,0.393 0.726,0.589 1.181,0.589c0.368,0 0.677,-0.102 0.929,-0.306c0.252,-0.204 0.485,-0.493 0.698,-0.867l0.184,0.067c-0.144,0.471 -0.413,0.907 -0.808,1.308c-0.394,0.401 -0.878,0.601 -1.449,0.601c-0.659,0 -1.169,-0.262 -1.528,-0.788c-0.36,-0.525 -0.54,-1.131 -0.54,-1.815c0,-0.744 0.209,-1.387 0.627,-1.927c0.417,-0.54 0.962,-0.81 1.632,-0.81c0.495,0 0.929,0.18 1.301,0.539" style="fill:#492f92;fill-rule:nonzero;"/><path d="M117.651,34.848c-0.21,0.026 -0.366,0.063 -0.468,0.112c-0.101,0.048 -0.152,0.146 -0.152,0.291c0,0.079 0.012,0.16 0.034,0.244c0.023,0.084 0.054,0.183 0.092,0.294l0.958,2.627l0.933,-2.399c0.041,-0.104 0.087,-0.239 0.136,-0.408c0.048,-0.168 0.073,-0.294 0.073,-0.379c0,-0.136 -0.04,-0.229 -0.12,-0.277c-0.081,-0.048 -0.198,-0.083 -0.352,-0.105l0,-0.158l1.332,0l0,0.158c-0.087,0.018 -0.159,0.062 -0.215,0.133c-0.056,0.07 -0.134,0.236 -0.236,0.498l-1.677,4.371c-0.014,0.033 -0.027,0.057 -0.038,0.072c-0.01,0.015 -0.026,0.022 -0.048,0.022c-0.043,-0.024 -0.068,-0.044 -0.075,-0.059l-1.286,-3.339l-1.278,3.332c-0.008,0.018 -0.017,0.034 -0.029,0.047c-0.014,0.013 -0.029,0.019 -0.046,0.019c-0.043,-0.022 -0.068,-0.04 -0.075,-0.055l-1.57,-4.083c-0.172,-0.452 -0.286,-0.718 -0.341,-0.798c-0.056,-0.081 -0.167,-0.134 -0.331,-0.16l0,-0.158l1.948,0l0,0.158c-0.161,0.014 -0.285,0.046 -0.37,0.092c-0.086,0.046 -0.129,0.146 -0.129,0.299c0,0.108 0.072,0.373 0.216,0.794c0.085,0.237 0.192,0.525 0.323,0.863l0.605,1.551l0.93,-2.095l0.01,-0.065c0,-0.075 -0.037,-0.214 -0.113,-0.417c-0.075,-0.203 -0.148,-0.386 -0.218,-0.546c-0.07,-0.17 -0.15,-0.288 -0.239,-0.354c-0.089,-0.067 -0.215,-0.107 -0.376,-0.122l0,-0.158l2.192,0l0,0.158Z" style="fill:#492f92;fill-rule:nonzero;"/><path d="M126.345,32.33l0,0.206c-0.253,-0.007 -0.441,0.014 -0.567,0.062c-0.126,0.048 -0.189,0.151 -0.189,0.311c0,0.048 0.011,0.108 0.032,0.18c0.02,0.073 0.068,0.168 0.141,0.287l1.58,2.454l1.543,-2.494c0.063,-0.107 0.104,-0.196 0.123,-0.266c0.019,-0.07 0.028,-0.123 0.028,-0.156c0,-0.163 -0.081,-0.27 -0.245,-0.322c-0.098,-0.033 -0.266,-0.052 -0.504,-0.056l0,-0.206l2.345,0l0,0.206c-0.216,0.012 -0.41,0.08 -0.581,0.206c-0.265,0.196 -0.563,0.561 -0.893,1.094l-1.585,2.563l0,2.215c0,0.44 0.067,0.715 0.202,0.824c0.133,0.109 0.434,0.176 0.902,0.202l0,0.207l-3.278,0l0,-0.207c0.486,-0.029 0.788,-0.106 0.906,-0.229c0.117,-0.125 0.175,-0.434 0.175,-0.929l0,-1.974l-1.405,-2.183c-0.486,-0.752 -0.826,-1.234 -1.022,-1.447c-0.195,-0.213 -0.433,-0.327 -0.712,-0.342l0,-0.206l3.004,0Z" style="fill:#492f92;fill-rule:nonzero;"/><path d="M131.567,35.258c-0.35,0.337 -0.525,0.918 -0.525,1.744c0,0.659 0.141,1.274 0.422,1.844c0.282,0.57 0.673,0.855 1.173,0.855c0.392,0 0.694,-0.191 0.905,-0.572c0.212,-0.381 0.318,-0.881 0.318,-1.499c0,-0.641 -0.135,-1.244 -0.404,-1.811c-0.27,-0.567 -0.66,-0.85 -1.17,-0.85c-0.277,0 -0.517,0.097 -0.719,0.289m-0.839,0.146c0.442,-0.509 1.011,-0.763 1.707,-0.763c0.692,0 1.266,0.24 1.72,0.721c0.455,0.481 0.682,1.121 0.682,1.92c0,0.736 -0.22,1.376 -0.661,1.92c-0.44,0.543 -1.01,0.815 -1.709,0.815c-0.671,0 -1.24,-0.261 -1.705,-0.782c-0.465,-0.521 -0.698,-1.177 -0.698,-1.964c0,-0.736 0.222,-1.358 0.664,-1.867" style="fill:#492f92;fill-rule:nonzero;"/><path d="M135.207,39.665c0.32,-0.03 0.532,-0.091 0.637,-0.182c0.105,-0.092 0.156,-0.286 0.156,-0.585l0,-2.505c0,-0.367 -0.032,-0.63 -0.096,-0.787c-0.065,-0.158 -0.183,-0.236 -0.354,-0.236c-0.035,0 -0.082,0.004 -0.139,0.013c-0.058,0.009 -0.118,0.021 -0.181,0.037l0,-0.183c0.2,-0.074 0.404,-0.15 0.615,-0.228c0.21,-0.077 0.355,-0.133 0.436,-0.166c0.175,-0.07 0.355,-0.15 0.541,-0.239c0.025,0 0.039,0.01 0.045,0.03c0.005,0.019 0.008,0.06 0.008,0.122l0,0.909c0.223,-0.329 0.439,-0.586 0.647,-0.771c0.208,-0.185 0.423,-0.277 0.648,-0.277c0.178,0 0.323,0.056 0.434,0.169c0.112,0.113 0.168,0.254 0.168,0.424c0,0.152 -0.043,0.279 -0.128,0.382c-0.085,0.104 -0.193,0.156 -0.321,0.156c-0.133,0 -0.266,-0.065 -0.401,-0.195c-0.135,-0.129 -0.24,-0.193 -0.317,-0.193c-0.123,0 -0.273,0.104 -0.452,0.313c-0.178,0.209 -0.267,0.425 -0.267,0.647l0,2.505c0,0.319 0.07,0.54 0.21,0.665c0.14,0.124 0.373,0.182 0.699,0.175l0,0.182l-2.588,0l0,-0.182Z" style="fill:#492f92;fill-rule:nonzero;"/><path d="M138.751,39.689c0.337,-0.026 0.559,-0.085 0.667,-0.178c0.107,-0.092 0.161,-0.292 0.161,-0.599l0,-5.561c0,-0.263 -0.042,-0.429 -0.127,-0.5c-0.084,-0.07 -0.206,-0.105 -0.364,-0.105c-0.067,0 -0.125,0.001 -0.174,0.005c-0.049,0.004 -0.104,0.01 -0.163,0.017l0,-0.158l0.474,-0.134c0.362,-0.099 0.669,-0.193 0.923,-0.282c0.155,-0.055 0.244,-0.083 0.269,-0.083c0.021,0 0.034,0.005 0.039,0.014c0.006,0.009 0.008,0.03 0.008,0.064l0,4.666l1.455,-1.356c0.105,-0.1 0.176,-0.179 0.212,-0.238c0.037,-0.059 0.056,-0.11 0.056,-0.155c0,-0.085 -0.04,-0.138 -0.118,-0.16c-0.079,-0.022 -0.22,-0.039 -0.423,-0.05l0,-0.158l2.188,0l0,0.158c-0.391,0.026 -0.705,0.109 -0.942,0.248c-0.238,0.139 -0.693,0.537 -1.367,1.194l-0.315,0.294l0.965,1.336c0.499,0.677 0.875,1.126 1.128,1.349c0.253,0.222 0.522,0.346 0.807,0.372l0,0.158l-2.336,0l0,-0.158l0.183,-0.012c0.059,-0.003 0.113,-0.017 0.162,-0.04c0.049,-0.023 0.074,-0.061 0.074,-0.114c0,-0.043 -0.009,-0.081 -0.026,-0.118c-0.018,-0.037 -0.042,-0.077 -0.074,-0.123l-1.629,-2.257l0,2.066c0,0.257 0.089,0.429 0.267,0.514c0.104,0.052 0.284,0.081 0.538,0.084l0,0.158l-2.518,0l0,-0.158Z" style="fill:#492f92;fill-rule:nonzero;"/></g></g></svg>